<?xml version="1.0" encoding="utf-8"?>
<!-- Generator: Adobe Illustrator 24.2.3, SVG Export Plug-In . SVG Version: 6.00 Build 0)  -->
<svg version="1.1" id="Layer_1" xmlns="http://www.w3.org/2000/svg" xmlns:xlink="http://www.w3.org/1999/xlink" x="0px" y="0px"
	 viewBox="0 0 110.09 117.29" style="enable-background:new 0 0 110.09 117.29;" xml:space="preserve">
<style type="text/css">
	.st0{fill:#DDB63A;}
	.st1{fill:#FCDE4F;}
	.st2{fill:#F2F2C7;}
	.st3{fill:#FFFFFF;}
	.st4{fill:#F15A24;}
	.st5{fill:#FAFAE9;}
	.st6{fill:none;stroke:#006837;stroke-width:0.5;stroke-miterlimit:10;}
	.st7{clip-path:url(#SVGID_2_);}
	.st8{clip-path:url(#SVGID_4_);}
	.st9{fill:#EFE8ED;}
	.st10{clip-path:url(#SVGID_6_);}
	.st11{fill:#F2EDF1;}
	.st12{fill:#CCCCCC;}
	.st13{fill:none;stroke:#999999;stroke-width:4;stroke-miterlimit:10;}
	.st14{clip-path:url(#SVGID_8_);}
	.st15{fill:none;stroke:#000000;stroke-width:0.5;stroke-miterlimit:10;}
	.st16{clip-path:url(#SVGID_12_);}
	.st17{clip-path:url(#SVGID_16_);}
	.st18{clip-path:url(#SVGID_20_);}
	.st19{clip-path:url(#SVGID_22_);}
	.st20{clip-path:url(#SVGID_26_);}
	.st21{clip-path:url(#SVGID_30_);}
	.st22{clip-path:url(#SVGID_32_);}
	.st23{fill:none;stroke:#000000;stroke-width:0.3;}
	.st24{fill:#006837;}
	.st25{fill:none;stroke:#F7714D;stroke-width:0.4243;stroke-linecap:round;stroke-miterlimit:10;}
	.st26{fill:none;stroke:#F7714D;stroke-width:0.4243;stroke-linecap:round;stroke-miterlimit:10.0004;}
	.st27{fill:#F7714D;}
	.st28{fill:#598E80;}
	.st29{fill:#C69C6D;}
	.st30{fill:none;stroke:#F7714D;stroke-width:0.3536;stroke-linecap:round;stroke-miterlimit:10;}
	.st31{fill:none;stroke:#F7714D;stroke-width:0.3536;stroke-linecap:round;stroke-miterlimit:10.0004;}
	.st32{fill:none;stroke:#C69C6D;stroke-width:0.5;stroke-miterlimit:10;}
	.st33{fill:#3CB67F;}
	.st34{fill:none;stroke:#F7714D;stroke-width:0.611;stroke-linecap:round;stroke-miterlimit:10;}
	.st35{fill:none;stroke:#EE451E;stroke-width:0.4;stroke-miterlimit:10;}
	.st36{fill:#EE451E;}
	.st37{fill:#B1E2CC;}
	.st38{fill:none;stroke:#F7714D;stroke-width:0.611;stroke-linecap:round;stroke-miterlimit:10.0004;}
	.st39{fill:#0EA35D;}
	.st40{fill:#D8F0E5;}
	.st41{fill:none;stroke:#F7714D;stroke-width:0.3971;stroke-linecap:round;stroke-miterlimit:10;}
	.st42{fill:#598E80;stroke:#598E80;stroke-width:0.25;stroke-miterlimit:10;}
</style>
<g>
	<path class="st27" d="M34.28,0.92c2.19-1.1,4.06-1.33,5.99-0.07c0.71,0.46,1.63,0.78,2.47,0.81c1.93,0.08,3.33,1.07,4.64,2.28
		c1.85,1.71,3.67,3.46,5.51,5.19c1.75,1.64,2.49,3.8,2.89,6.04c0.54,3.1,0.84,6.24,1.29,9.35c0.22,1.49,0.5,2.98,0.84,4.45
		c0.1,0.43,0.49,0.8,0.95,1.51c0.62-1.18,1.15-2.02,1.52-2.93c1.07-2.66,2.9-4.68,5.16-6.38c1.19-0.89,2.39-1.69,3.29-3.03
		c1.2-1.79,3.27-1.45,4.2,0.49c0.31,0.66,0.57,1.46,0.51,2.16c-0.17,2.12-0.42,4.25-0.8,6.35c-0.61,3.35-1.74,6.55-2.86,9.76
		c-0.54,1.54-0.8,3.18-1.1,4.79c-0.18,0.99,0.46,1.84,1.43,1.8c1.63-0.07,3.29-0.12,4.86-0.51c3.71-0.93,6.91-0.26,9.78,2.35
		c1.1,1.01,2.51,1.67,3.78,2.5c0.84,0.55,1.81,0.99,2.5,1.69c3.86,3.96,8.13,7.49,11.48,11.97c1.82,2.43,3.57,4.91,4.83,7.63
		c1.91,4.13,3.4,8.44,2.29,13.15c-0.2,0.86-0.29,1.74-0.38,2.62c-0.27,2.78-0.82,5.46-2.03,8.02c-1.07,2.27-1.88,4.66-2.87,6.98
		c-0.98,2.29-2.74,3.86-4.81,5.17c-2.44,1.55-4.94,3.05-7.19,4.85c-2.56,2.05-5.56,2.82-8.6,3.62c-1.7,0.45-3.47,0.71-5.08,1.38
		c-3.79,1.58-7.74,2.5-11.77,2.37c-4.38-0.14-8.73-0.76-12.75-2.93c-4.76-2.56-8.86-5.74-11.73-10.39
		c-0.86-1.39-1.92-2.66-2.94-3.93c-2.11-2.64-3.31-5.62-3.57-8.99c-0.02-0.25,0-0.52-0.06-0.75c-1.4-4.85-0.25-9.44,1.23-14.07
		c1.12-3.5,2.41-6.9,4.1-10.14c0.93-1.77,2.16-3.39,3.27-5.07c0.54-0.82,1.09-1.62,1.69-2.51c-0.5-0.5-0.8-0.9-1.19-1.17
		c-4.49-3.07-9.59-4.38-14.86-5.19c-1.37-0.21-2.75-0.42-4.13-0.5c-4.74-0.27-8.63-2.29-12.22-5.32c-2.34-1.97-4.45-4.04-6.13-6.6
		c-0.88-1.35-1.96-2.48-3.63-3.16c-1.32-0.54-2.38-1.81-3.41-2.9c-1.15-1.22-0.44-2.67-0.04-3.94c0.29-0.93,1.32-1.1,2.22-1.16
		c0.5-0.04,1.02-0.06,1.5,0.06c5.16,1.24,10.44,1.57,15.69,2.15c2.5,0.28,5.07,0.36,7.48,1.01c5.8,1.56,11.05,4.22,15.3,8.6
		c0.7,0.72,1.39,1.46,2.16,2.11c1.65,1.39,3.21,2.82,4.37,4.68c0.39,0.63,0.96,1.16,1.52,1.66c0.71,0.64,1.8,0.35,2.2-0.53
		c0.57-1.22,0.56-2.46-0.04-3.65c-0.85-1.69-1.68-3.4-2.69-4.99c-3.4-5.36-6.09-11.01-7.75-17.16c-1.08-4.01-2.25-7.99-3.51-11.95
		c-0.53-1.68-1.36-3.22-3.02-4.19C33.97,5.13,33.72,3.23,34.28,0.92z M89.72,107.81c2.73-0.95,4.5-2.83,6.61-4.16
		c3.7-2.33,5.92-5.7,7.38-9.69c0.3-0.83,0.44-1.76,0.92-2.47c1.15-1.68,1.14-3.58,1.28-5.45c0.19-2.5,0.28-5.02,0.34-7.53
		c0.02-1-0.01-2.04-0.27-2.99c-0.94-3.4-2.15-6.68-4.11-9.69c-2.91-4.45-6.98-7.87-10.32-11.92c-0.31-0.38-0.77-0.64-1.18-0.94
		c-2.85-2.08-5.73-4.12-8.53-6.26c-1.4-1.07-2.87-1.47-4.6-1.19c-2.24,0.36-4.48,0.74-6.73,0.99c-2.11,0.23-3.59,1.07-4.03,3.29
		c-0.26,1.31-0.85,2.33-2.24,2.79c-1.22,0.4-1.7,1.5-1.93,2.62c-0.39,1.96-1.7,2.7-3.5,2.83c-1.24,0.1-2.51,0.27-3.72,0.09
		c-1.73-0.25-3.21,0.12-4.69,0.97c-4.24,2.45-6.81,6.27-8.72,10.61c-0.91,2.07-1.66,4.21-2.44,6.34
		c-2.51,6.85-2.69,13.54,1.43,19.93c0.41,0.63,0.8,1.3,1.05,2.01c0.91,2.6,2.76,4.5,4.69,6.31c1.93,1.81,3.93,3.54,5.93,5.27
		c0.57,0.49,1.21,0.92,1.89,1.24c7.63,3.61,15.45,4.33,23.5,1.5c1.66-0.58,3.36-1.04,5.04-1.57c1.54-0.49,3.23-0.63,4.45-1.88
		c0.13-0.81,0.25-1.6,0.41-2.67C88.49,106.85,89.05,107.29,89.72,107.81z M7.67,32.64c0.09,0.76,0,1.42,0.25,1.9
		c0.69,1.33,1.48,2.62,2.31,3.87c4.02,6.04,9.41,10.14,16.74,11.1c5.78,0.76,11.3,2.33,16.73,4.35c1.51,0.56,3.15,0.82,4.76,1.06
		c0.91,0.13,1.81-0.29,2.18-1.19c0.38-0.93-0.17-1.7-0.86-2.32c-0.37-0.33-0.88-0.52-1.22-0.88c-1.02-1.09-2.21-2.11-2.94-3.38
		c-1.23-2.14-2.86-3.91-4.79-5.27c-3.07-2.17-6.31-4.13-9.61-5.94c-2.91-1.59-6.24-1.85-9.48-2.2c-2.74-0.3-5.5-0.51-8.25-0.76
		C11.64,32.82,9.8,32.37,7.67,32.64z M56.57,36.86c0.08-0.01,0.16-0.03,0.24-0.04c-0.41-2.21-0.92-4.42-1.21-6.64
		c-0.54-3.98-1-7.98-1.39-11.98c-0.2-2.08-0.74-3.99-2.33-5.4c-1.24-1.1-2.19-2.38-3.12-3.75c-1.49-2.21-3.66-3.41-6.39-3.4
		c-1.33,0-2.08,0.94-1.76,2.27c0.57,2.32,1.17,4.63,1.8,6.93c1.51,5.46,2.93,10.94,5.71,15.94c1.1,1.98,2.09,4.02,3.26,5.96
		c0.57,0.94,1.38,1.76,2.19,2.53c1.37,1.29,2.67,0.24,2.97-1.27C56.63,37.63,56.57,37.24,56.57,36.86z M71,27.25
		c0-1.45,0.04-2.08-0.01-2.7c-0.15-1.99-1.72-2.81-3.45-1.79c-1.76,1.04-3.21,2.4-4.31,4.14c-1.92,3.03-2.89,6.41-3.59,9.86
		c-0.43,2.13,0.08,4.24,1.16,6.18c0.83,1.49,1.81,1.94,3.41,1.42c1.53-0.5,2.51-1.37,2.85-3.12c0.4-2.08,1.34-4.04,1.79-6.11
		C69.49,32.2,71.5,29.62,71,27.25z M63.29,48.57l0.02-0.29l-0.29,0.13L63.29,48.57z"/>
	<path class="st27" d="M55.07,72.56c0.25,0.7,0.51,1.4,0.84,2.29c0.61-0.03,1.19-0.09,1.77-0.1c1.55-0.01,2.52,1.35,1.93,2.74
		c-0.14,0.33-0.33,0.73-0.62,0.91c-1.08,0.66-1.53,1.57-1.4,2.81c0.02,0.23-0.06,0.5-0.17,0.72c-0.29,0.59-0.75,1.09-1.45,0.88
		c-0.41-0.13-1-0.57-1.03-0.91c-0.18-2.28-1.06-4.3-1.97-6.36c-0.68-1.55,0.05-2.38,2.16-2.92L55.07,72.56z"/>
	<path class="st27" d="M62.4,85.32c1.54-0.01,2.41,0.39,2.45,1.19c0.06,1.09-0.73,1.54-1.6,1.8c-1.15,0.35-1.38,1.25-1.68,2.27
		c-0.44,1.53-1.16,2-2.36,1.94c-1.58-0.08-2.63-1.39-2.08-2.84c0.44-1.16,1.07-2.28,1.78-3.3C59.51,85.52,60.51,85.33,62.4,85.32z"
		/>
	<path class="st27" d="M53.43,88.88c-0.12,0.49-0.22,0.98-0.38,1.44c-0.28,0.81-1.4,1.22-2.18,0.84c-3.57-1.76-3.89-5.36-0.69-7.75
		c0.88-0.66,2.19-0.34,2.43,0.7C52.95,85.68,53.16,87.28,53.43,88.88z"/>
	<path class="st27" d="M43.55,81.92c-0.04-0.05-0.52-0.47-0.67-0.97c-0.18-0.62,0.14-1.56,0.78-1.45c2.12,0.36,3.38-1.2,4.99-1.96
		c0.45-0.21,0.85-0.56,1.31-0.73c0.77-0.29,1.53-0.15,2.05,0.49c0.53,0.64,0.48,1.4,0.11,2.13c-0.75,1.49-2.18,2.15-3.64,2.44
		C47.06,82.14,45.53,81.92,43.55,81.92z"/>
	<path class="st27" d="M55.13,72.63c-1.8-3.33-0.85-6.81-0.5-10.25c0.08-0.76,0.96-1.3,1.66-1.19c0.67,0.1,1.24,0.84,1.16,1.67
		c-0.07,0.74-0.12,1.53-0.43,2.18c-0.78,1.6-1.33,3.12-0.65,4.96c0.4,1.07-0.88,1.68-1.31,2.55C55.07,72.56,55.13,72.63,55.13,72.63
		z"/>
	<path class="st27" d="M67.41,104.74c-0.26,0.29-0.52,0.75-0.91,0.97c-0.83,0.45-1.9,0.53-2.42-0.24c-0.82-1.22-1.38-2.63-1.9-4.01
		c-0.12-0.31,0.26-1,0.6-1.24c0.32-0.22,1.1-0.29,1.33-0.06c1.07,1.03,2.05,2.17,3,3.32C67.33,103.73,67.29,104.18,67.41,104.74z"/>
	<path class="st27" d="M53.67,104.17c1.66,0.5,3.03,0.91,4.31,1.3c0.61,1.16-0.1,1.78-0.81,2.23c-0.58,0.37-1.34,0.68-2.01,0.65
		C53.87,108.29,53.42,107.02,53.67,104.17z"/>
	<path class="st27" d="M63.45,69.43c1.18,0.09,2.06,0.14,2.93,0.22c1.12,0.11,1.76,0.8,1.53,1.63c-0.29,1.05-1.37,1.87-2.24,1.53
		c-0.92-0.36-1.8-0.87-2.6-1.45c-0.32-0.23-0.57-0.9-0.47-1.26C62.69,69.76,63.28,69.56,63.45,69.43z"/>
	<path class="st27" d="M72.35,99.29c-0.81-0.43-1.71-0.8-2.5-1.35c-0.61-0.42-0.66-1.65-0.21-2.42c0.45-0.77,1.16-0.81,1.95-0.6
		c0.9,0.24,1.57,0.73,1.89,1.63C73.74,97.31,73.58,97.73,72.35,99.29z"/>
	<path class="st27" d="M48.9,97.14c0.09-0.42,0.13-0.93,0.31-1.39c0.26-0.62,0.8-1.09,1.47-0.87c0.54,0.18,1.3,0.61,1.39,1.05
		c0.27,1.25-0.02,2.51-0.81,3.56c-0.19,0.25-0.7,0.5-0.96,0.41c-0.42-0.13-0.94-0.46-1.1-0.84C48.96,98.52,49,97.85,48.9,97.14z"/>
	<path class="st27" d="M79.88,109.8c-0.33-0.2-0.74-0.32-0.92-0.59c-0.63-0.94-0.48-2.15,0.32-2.66c0.26-0.16,0.77-0.17,1.05-0.02
		c0.85,0.45,1.08,1.68,0.49,2.62C80.65,109.44,80.24,109.57,79.88,109.8z"/>
	<path class="st27" d="M70.12,84.19c0.29,0.4,0.89,0.88,1.01,1.46c0.15,0.76-0.41,1.36-1.18,1.62c-0.55,0.19-1.15-0.32-1.24-1.03
		C68.58,85.17,69.04,84.31,70.12,84.19z"/>
	<path class="st27" d="M46.2,89.85c-0.03,0.72-0.79,1.27-1.6,1.16c-0.77-0.11-1.2-0.7-1.16-1.61c0.03-0.71,0.37-1.2,1.11-1.18
		C45.5,88.22,46.23,89,46.2,89.85z"/>
	<path class="st27" d="M77.99,96.24c-0.25,0.14-0.62,0.54-1.02,0.56c-0.75,0.03-1.31-0.84-1.07-1.63c0.09-0.28,0.48-0.63,0.77-0.67
		C77.44,94.4,78.08,95.16,77.99,96.24z"/>
	<path class="st27" d="M72.99,109.59c-0.54-0.72-1.05-1.12-1.13-1.6c-0.11-0.65,0.35-1.22,1.08-1.25c0.73-0.03,1.25,0.5,1.17,1.16
		C74.04,108.39,73.52,108.82,72.99,109.59z"/>
	<path class="st27" d="M47.91,71.67c-0.61,0.49-1.01,0.97-1.51,1.17c-0.49,0.19-0.97-0.64-0.86-1.36c0.11-0.71,0.78-1.3,1.27-1.01
		C47.19,70.68,47.44,71.13,47.91,71.67z"/>
	<path class="st27" d="M58.39,98.64c-0.22,0.25-0.52,0.8-0.98,1.06c-0.49,0.28-1.17-0.37-1.1-1.11c0.04-0.4,0.35-0.92,0.7-1.11
		C57.59,97.17,58.28,97.68,58.39,98.64z"/>
	<path class="st27" d="M70.07,78.29c0.98,0.13,1.35,0.83,1.08,1.78c-0.08,0.28-0.46,0.62-0.74,0.66c-0.68,0.08-1.28-0.76-1.07-1.57
		C69.45,78.79,69.88,78.5,70.07,78.29z"/>
	<path class="st27" d="M64.01,81.38c-0.55,0.36-0.88,0.73-1.26,0.79c-0.55,0.08-1.03-0.74-0.72-1.32c0.17-0.32,0.74-0.65,1.06-0.6
		C63.39,80.31,63.61,80.87,64.01,81.38z"/>
	<path class="st27" d="M63.9,64.87c-0.11,0.01-0.21,0.01-0.32,0.02c0.05-0.17,0.1-0.34,0.15-0.51c0.09,0.06,0.24,0.1,0.27,0.18
		C64.02,64.65,63.94,64.77,63.9,64.87z"/>
</g>
</svg>
