<?xml version="1.0" encoding="utf-8"?>
<!-- Generator: Adobe Illustrator 21.1.0, SVG Export Plug-In . SVG Version: 6.00 Build 0)  -->
<svg version="1.1" id="Layer_1" xmlns="http://www.w3.org/2000/svg" xmlns:xlink="http://www.w3.org/1999/xlink" x="0px" y="0px"
	 viewBox="0 0 300 300" style="enable-background:new 0 0 300 300;" xml:space="preserve">
<style type="text/css">
	.st0{fill:none;}
	.st1{fill:#3D1E14;}
	.st2{fill:#FFFFFF;}
	.st3{fill:#F4764E;}
	.st4{fill:#F8AD95;}
	.st5{fill:#7A3B27;}
	.st6{fill:#EEEE9B;}
	.st7{clip-path:url(#SVGID_2_);}
	.st8{clip-path:url(#SVGID_4_);}
	.st9{fill:none;stroke:#F7714D;stroke-width:2;stroke-linecap:round;stroke-miterlimit:10;}
	.st10{fill:#F7714D;}
</style>
<g>
	<g>
		<g>
			<path class="st9" d="M127.5,117.4c0,0,10.7-1.3,17.2-10.3s0.6-13.8-4.2-8.2c-4.8,5.7-8.6,18,2.9,18.9c11.5,1,14.6-20.6,14.7-20.6
				c14.7-1.9,27.8-33.9,17.9-37.1c-5.4-1.7-9.4,3.1-11.7,6.6c-4.1,6.4-7.4,14.2-7.7,21.9c-0.2,4.6,1.1,9.9,4.9,12.8
				c3.9,3,9.7,2.4,13.5-0.5c5.3-3.9,8.2-10.2,10.1-16.1c2-5.9,3.2-11.2,3.2-11.2"/>
			<path class="st9" d="M187.3,77.9c0,0-0.5,1.8-1.4,5.6c-0.8,3.5,3.5,8.9,9.2,7c7.1-2.4,11.9-9.3,15.7-15.4
				c0.2-0.3,0.4-0.6,0.5-0.9c2-3.4,3.8-7,5.4-10.6"/>
			<g>
				<path class="st9" d="M160.7,163.9c0,0-0.5,1.8-1.4,5.6c-0.8,3.5,3.5,8.9,9.2,7c7.1-2.4,10-19.9,11-26.4"/>
				<path class="st9" d="M179,153.2c0,0-0.2,1.8-1.1,5.6c-0.8,3.5,3.5,8.9,9.2,7c5.6-1.9,10.1-20.3,10.1-20.3
					c14.7-1.9,27.8-33.9,17.9-37.1c-5.4-1.7-9.4,3.1-11.7,6.6c-4.1,6.4-7.4,14.2-7.7,21.9c-0.2,4.6,1.1,9.9,4.9,12.8
					c3.9,3,9.7,2.4,13.5-0.5c0,0,4.8-2.9,7.5-9.9c2.7-6.9-4-10-5.6-7.5c-1.8,2.8,2.4,6.4,6.1,4.9c12.6-5.1,15.5-21.6,16.3-26.3"/>
				<path class="st9" d="M162,159.2c0,0-1.2,5.4-3.2,11.2c-2,5.9-4.9,12.2-10.1,16.1c-3.8,2.9-9.6,3.5-13.5,0.5
					c-3.8-2.9-5.1-8.2-4.9-12.8c0.3-7.7,3.5-15.5,7.7-21.9c2.3-3.5,6.3-8.3,11.7-6.6c9.9,3.1-3.2,35.2-17.9,37.1c0,0,0,0.2-0.1,0.5
					c0,0-1.6,22.3-24,22.5c-12.7,0.1-18.6-6.4-19.9-14.6c-1-6.3,0.7-13.5,4.2-19.3c4.1-6.9,10.8-12.9,18.4-15.5
					c6-2.1,15.2-1.1,13.9,8.2c-1.9,13.7-19,26.3-36.1,26.9c-5.4,0.2-13-0.4-16.9-4.7c-1.7-1.9-2.4-4.9-0.1-6.7
					c1.6-1.3,3.6-0.2,4.3,1.5c0.7,1.7,0.5,3.6-0.2,5.3c-0.8,1.9-2.4,3.4-3.9,4.9c-5.2,5.3-9.4,12.2-10.7,19.6
					c-2,10.6,1.7,20.4,12.8,23.2c16,4,28.5-8.9,41.4-16.3c25.5-14.7,53.3-25.1,80.4-36.4c19.5-8.1,41-18.4,52.4-37.1
					c2-3.3,3.7-6.8,4.8-10.5c0.7-2.1,1.2-4.3,1.3-6.5"/>
			</g>
			<path class="st9" d="M232.5,64.1c-0.1,2.2-0.6,4.4-1.3,6.5c-1.2,3.7-2.8,7.2-4.8,10.5c-11.4,18.7-32.9,29-52.4,37.1
				c-27.1,11.3-54.9,21.7-80.4,36.4C80.6,162.1,68.1,175,52.1,171c-11.2-2.8-14.8-12.6-12.8-23.2c3.1-16.6,17.2-25,29-35.1
				c1.9-1.6,3.7-3.4,5.4-5.3c1.6-1.9,3.7-4.5,2.4-7.1c-0.5-1.1-1.6-2-2.8-2.2c-1.2-0.2-2.6,0.4-3.2,1.4c-0.6,1-0.6,2.3-0.1,3.3
				c1.5,3,5.4,3.2,8.3,2.9c3.8-0.3,7.7-1.2,11.1-2.9c0.2-0.1,0.5-0.2,0.7-0.4c5.8-3.2,9.6-9.3,15.2-12.8c6.2-3.9,16.3-4.2,20.8,2.5
				c3.3,4.9,3.1,11.7,2.6,17.3c-0.7,8.9-4.5,17.6-11.8,23c-4.2,3.1-9.4,5-14.6,5.3c-4.2,0.3-8-1.2-11.9-2.4
				c-7.6-2.3-17.7-4.2-23.8,2c-3.4,3.4-9.7,12.4-2.3,15.1c6.2,2.3,11-3.7,18.5-19.7c5.6-12,7.4-21.1,9.1-30.9
				c0.6-3.3,1.1-6.7,1.8-10.2c2.8-14.3,4.4-13.8,4.4-13.8"/>
		</g>
		
			<ellipse transform="matrix(8.809214e-03 -1 1 8.809214e-03 -1.3156 298.6728)" class="st9" cx="150" cy="150" rx="127.3" ry="127.3"/>
	</g>
	<circle class="st10" cx="189.5" cy="64.2" r="1.5"/>
</g>
</svg>
